# xmcd CD database file
#
# Track frame offsets:
#	150
#	20759
#	40205
#	63959
#	82582
#	101800
#	122104
#	143940
#	172078
#	194944
#	213381
#	233324
#	253863
#	273532
#
# Disc length: 3969 seconds
#
# Revision: 0
# Processed by: cddbd v1.5.2PL0 Copyright (c) Steve Scherf et al.
# Submitted via: CDex 1.70beta2
#
DISCID=ce0f7f0e
DTITLE=Ana Popovic - Still Making History
DYEAR=2007
DGENRE=Blues Rock
TTITLE0=U Complete Me
TTITLE1=Hold On
TTITLE2=Between Our Worlds
TTITLE3=Is This Everything There Is
TTITLE4=Hungry
TTITLE5=Doubt Everyone But Me
TTITLE6=You Don't Move Me
TTITLE7=Still Making History
TTITLE8=My Favorite Night
TTITLE9=How'd You Learn To Shake It Like That
TTITLE10=Shadow After Dark
TTITLE11=Calendars
TTITLE12=Sexiest Man Alive
TTITLE13=U Complete Me (Blues Version)(bonus Track)
EXTD=YEAR: 2007
EXTT0=
EXTT1=
EXTT2=
EXTT3=
EXTT4=
EXTT5=
EXTT6=
EXTT7=
EXTT8=
EXTT9=
EXTT10=
EXTT11=
EXTT12=
EXTT13=
PLAYORDER=
